<svg width="194" height="33" viewBox="0 0 194 33" fill="none" xmlns="http://www.w3.org/2000/svg">
<path d="M0 15.8858C3.14704 15.4711 6.18352 14.1041 8.58822 11.7502C10.9929 9.40013 12.3828 6.43951 12.7895 3.3829C9.66224 3.8437 6.65735 5.22608 4.26845 7.56078C1.87164 9.90699 0.458039 12.8407 0 15.8858Z" fill="white" fill-opacity="0.8"/>
<path d="M0.00395247 20.298C0.477786 23.3546 1.90719 26.296 4.32768 28.6346C6.7087 30.9347 9.67805 32.3056 12.7659 32.7702C12.3473 29.6944 10.9376 26.7223 8.50531 24.3684C6.11245 22.0567 3.1115 20.7089 0 20.298H0.00395247Z" fill="white" fill-opacity="0.8"/>
<path d="M17.1406 32.8237C20.3864 32.409 23.5216 31.0036 26.0013 28.5768C28.4692 26.1653 29.8867 23.1163 30.2895 19.9637C27.0319 20.3247 23.873 21.7109 21.3854 24.1455C18.9017 26.5762 17.4921 29.6558 17.1406 32.8237Z" fill="white" fill-opacity="0.8"/>
<path d="M30.213 15.674C29.7076 12.6903 28.2861 9.82189 25.9169 7.52943C23.4846 5.17938 20.4362 3.80085 17.2773 3.36309C17.7275 6.37362 19.1253 9.26894 21.5063 11.5729C23.9505 13.9345 27.0304 15.2938 30.209 15.674H30.213Z" fill="white" fill-opacity="0.8"/>
<path d="M124.696 16.6081C124.483 16.5274 124.313 16.4429 124.144 16.3623C124.226 16.1972 124.27 16.1165 124.357 15.9898C124.4 15.8669 124.483 15.7441 124.57 15.6173C125.968 12.7719 125.841 9.96878 124.061 7.32689C122.406 4.89236 119.99 3.65589 116.977 3.65589C108.622 3.61365 100.223 3.61366 91.8281 3.61366V32.4824C92.1243 32.4824 92.3809 32.4402 92.6771 32.4402H121.008C121.731 32.4402 122.493 32.3595 123.212 32.2328C127.2 31.4495 130.126 27.7785 129.869 23.8617C129.656 20.4787 127.875 18.048 124.696 16.6042V16.6081ZM96.1124 7.82223C96.2821 7.77999 96.4954 7.78 96.6652 7.78H117.064C119.271 7.78 120.965 9.18158 121.304 11.2859C121.687 13.5975 119.863 15.7825 117.447 15.9053C117.277 15.9476 117.151 15.9053 116.981 15.9053H96.1124V7.82223ZM122.153 28.2393C121.814 28.2815 121.474 28.2815 121.135 28.2815H95.986V20.2407C96.1558 20.2407 96.3256 20.1984 96.4954 20.1984H121.391C123.599 20.1984 125.249 21.6 125.589 23.7043C125.928 25.8086 124.317 27.9129 122.153 28.2393Z" fill="white"/>
<path d="M137.043 32.4865H175.214V28.3202H141.244V20.0374H170.867V15.871H141.244V7.78026H175.214V3.61392H137.043V32.4865Z" fill="white"/>
<path d="M79.9336 32.4859H84.131C84.131 24.2376 84.2652 3.61705 84.2652 3.61705H79.9336V32.4859Z" fill="white"/>
<path d="M53.7645 32.2978L40.5841 3.67858H36.3867L49.6817 32.5512H57.8474L71.1424 3.67858H66.9411L53.7645 32.2978Z" fill="white"/>
<path d="M193.605 3.80913C193.34 3.21009 192.977 2.68403 192.511 2.23091C192.049 1.7778 191.504 1.42454 190.892 1.16726C190.276 0.909983 189.617 0.783264 188.91 0.783264C188.203 0.783264 187.552 0.909983 186.936 1.16726C186.32 1.42454 185.779 1.7778 185.313 2.23091C184.847 2.68403 184.48 3.20625 184.215 3.80913C183.951 4.412 183.82 5.04944 183.82 5.73679C183.82 6.42414 183.951 7.05774 184.215 7.65677C184.48 8.2558 184.843 8.78187 185.313 9.23499C185.779 9.6881 186.32 10.0452 186.936 10.3025C187.552 10.5598 188.211 10.6865 188.91 10.6865C189.609 10.6865 190.276 10.5598 190.892 10.3025C191.508 10.0452 192.049 9.69194 192.511 9.23499C192.977 8.78187 193.34 8.2558 193.605 7.65677C193.87 7.05774 194 6.41646 194 5.73679C194 5.05712 193.87 4.40816 193.605 3.80913ZM192.559 7.23054C192.353 7.69901 192.069 8.1099 191.706 8.46317C191.342 8.81645 190.924 9.09292 190.446 9.29259C189.968 9.49227 189.455 9.5921 188.91 9.5921C188.365 9.5921 187.852 9.49227 187.366 9.29259C186.884 9.09292 186.462 8.81645 186.099 8.46317C185.735 8.1099 185.451 7.69902 185.246 7.23438C185.04 6.76591 184.938 6.2667 184.938 5.73295C184.938 5.19919 185.04 4.70001 185.246 4.23538C185.451 3.77459 185.735 3.36371 186.099 3.01043C186.462 2.65716 186.884 2.38067 187.362 2.18099C187.844 1.98131 188.357 1.88149 188.906 1.88149C189.455 1.88149 189.968 1.98131 190.446 2.18099C190.92 2.38067 191.338 2.65716 191.702 3.01043C192.065 3.36371 192.349 3.77075 192.555 4.23538C192.76 4.70001 192.863 5.19919 192.863 5.7291C192.863 6.25902 192.76 6.75823 192.555 7.23054H192.559Z" fill="white"/>
<path d="M188.905 7.05092L187.429 3.76777H186.434L188.471 8.31428H189.332L191.369 3.76777H190.37L188.905 7.05092Z" fill="white"/>
</svg>
