<svg width="208" height="36" viewBox="0 0 208 36" fill="none" xmlns="http://www.w3.org/2000/svg">
<path d="M0 16.988C3.37424 16.5307 6.62993 15.0236 9.20824 12.4283C11.7865 9.83731 13.2768 6.57313 13.7129 3.20313C10.3598 3.71117 7.13797 5.23529 4.5766 7.80936C2.00676 10.3961 0.491106 13.6307 0 16.988Z" fill="#252526" fill-opacity="0.8"/>
<path d="M0.00729232 21.8526C0.515333 25.2226 2.04793 28.4656 4.64317 31.0439C7.19607 33.5799 10.3798 35.0913 13.6905 35.6036C13.2418 32.2124 11.7303 28.9356 9.12239 26.3403C6.55678 23.7917 3.33919 22.3056 0.00305452 21.8526H0.00729232Z" fill="#252526" fill-opacity="0.8"/>
<path d="M18.3821 35.663C21.8622 35.2057 25.2237 33.6562 27.8824 30.9805C30.5285 28.3218 32.0484 24.9602 32.4802 21.4844C28.9874 21.8824 25.6005 23.4107 22.9333 26.0949C20.2703 28.7748 18.7589 32.1702 18.3821 35.663Z" fill="#252526" fill-opacity="0.8"/>
<path d="M32.3913 16.7551C31.8494 13.4656 30.3253 10.303 27.7851 7.77551C25.1772 5.1845 21.9088 3.66462 18.5218 3.18198C19.0045 6.50118 20.5032 9.69337 23.0561 12.2336C25.6767 14.8373 28.979 16.336 32.3871 16.7551H32.3913Z" fill="#252526" fill-opacity="0.8"/>
<path d="M133.695 17.7843C133.466 17.6954 133.284 17.6022 133.102 17.5133C133.191 17.3313 133.238 17.2424 133.331 17.1027C133.377 16.9672 133.466 16.8317 133.56 16.692C135.058 13.5548 134.923 10.4643 133.013 7.55151C131.239 4.86736 128.648 3.50412 125.418 3.50412C116.46 3.45755 107.455 3.45756 98.4539 3.45756V35.2863C98.7715 35.2863 99.0466 35.2397 99.3642 35.2397H129.741C130.516 35.2397 131.333 35.1508 132.103 35.0111C136.379 34.1474 139.516 30.1 139.241 25.7817C139.012 22.0518 137.103 19.3719 133.695 17.7801V17.7843ZM103.047 8.09765C103.229 8.05108 103.458 8.05108 103.64 8.05108H125.511C127.878 8.05108 129.694 9.59637 130.058 11.9164C130.469 14.4651 128.513 16.874 125.922 17.0095C125.74 17.0561 125.604 17.0095 125.422 17.0095H103.047V8.09765ZM130.969 30.6081C130.604 30.6547 130.24 30.6547 129.876 30.6547H102.912V21.7894C103.094 21.7894 103.276 21.7428 103.458 21.7428H130.151C132.518 21.7428 134.288 23.2881 134.652 25.6081C135.016 27.9282 133.289 30.2482 130.969 30.6081Z" fill="#252526"/>
<path d="M148 34.833H188.927V30.2394H152.505V21.1074H184.266V16.5139H152.505V7.59353H188.927V3H148V34.833Z" fill="#252526"/>
<path d="M85.6975 35.29H90.1979C90.1979 26.196 90.3418 3.46119 90.3418 3.46119H85.6975V35.29Z" fill="#252526"/>
<path d="M57.6508 35.0825L43.5188 3.52901H39.0184L53.2732 35.362H62.0284L76.2832 3.52901H71.7785L57.6508 35.0825Z" fill="#252526"/>
<path d="M207.577 3.67315C207.293 3.01269 206.904 2.43269 206.404 1.93311C205.909 1.43354 205.325 1.04406 204.668 0.760403C204.008 0.476747 203.301 0.337036 202.543 0.337036C201.785 0.337036 201.087 0.476747 200.426 0.760403C199.766 1.04406 199.186 1.43354 198.686 1.93311C198.187 2.43269 197.793 3.00846 197.509 3.67315C197.225 4.33783 197.086 5.04063 197.086 5.79846C197.086 6.55628 197.225 7.25484 197.509 7.91529C197.793 8.57575 198.182 9.15575 198.686 9.65533C199.186 10.1549 199.766 10.5486 200.426 10.8323C201.087 11.116 201.794 11.2557 202.543 11.2557C203.292 11.2557 204.008 11.116 204.668 10.8323C205.329 10.5486 205.909 10.1591 206.404 9.65533C206.904 9.15575 207.293 8.57575 207.577 7.91529C207.86 7.25484 208 6.54782 208 5.79846C208 5.0491 207.86 4.3336 207.577 3.67315ZM206.455 7.44536C206.235 7.96187 205.93 8.41488 205.54 8.80438C205.151 9.19388 204.702 9.49869 204.19 9.71884C203.678 9.93899 203.127 10.0491 202.543 10.0491C201.959 10.0491 201.408 9.93899 200.888 9.71884C200.371 9.49869 199.918 9.19388 199.529 8.80438C199.139 8.41488 198.834 7.96187 198.614 7.4496C198.394 6.93309 198.284 6.3827 198.284 5.79422C198.284 5.20574 198.394 4.65538 198.614 4.1431C198.834 3.63506 199.139 3.18206 199.529 2.79256C199.918 2.40306 200.371 2.09822 200.883 1.87807C201.4 1.65792 201.95 1.54786 202.539 1.54786C203.127 1.54786 203.678 1.65792 204.19 1.87807C204.698 2.09822 205.147 2.40306 205.536 2.79256C205.926 3.18206 206.231 3.63083 206.451 4.1431C206.671 4.65538 206.781 5.20574 206.781 5.78998C206.781 6.37423 206.671 6.92462 206.451 7.44536H206.455Z" fill="#252526"/>
<path d="M202.548 7.24649L200.964 3.6267H199.897L202.082 8.63938H203.005L205.19 3.6267H204.118L202.548 7.24649Z" fill="#252526"/>
</svg>
